<svg width="14" height="14" viewBox="0 0 14 14" fill="none" xmlns="http://www.w3.org/2000/svg">
<path d="M5.5786 9.75991C6.55977 9.82377 7.52811 9.51788 8.29375 8.90451L11.3579 11.972C11.358 11.972 11.358 11.972 11.358 11.9721C11.3983 12.0126 11.4461 12.0448 11.4988 12.0667C11.5515 12.0887 11.6081 12.1 11.6652 12.1C11.7224 12.1 11.779 12.0887 11.8317 12.0667C11.8843 12.0448 11.9321 12.0127 11.9723 11.9723C12.0127 11.9321 12.0448 11.8843 12.0667 11.8317C12.0887 11.779 12.1 11.7224 12.1 11.6652C12.1 11.6081 12.0887 11.5515 12.0667 11.4988C12.0448 11.4461 12.0126 11.3983 11.9721 11.358C11.972 11.358 11.972 11.358 11.972 11.3579L8.90451 8.29375C9.51788 7.52811 9.82377 6.55977 9.75991 5.5786C9.69406 4.56686 9.24015 3.61959 8.49284 2.93439C7.74553 2.24919 6.76254 1.87896 5.74889 1.90092C4.73524 1.92289 3.7692 2.33535 3.05227 3.05227C2.33535 3.7692 1.92289 4.73524 1.90092 5.74889C1.87896 6.76254 2.24919 7.74553 2.93439 8.49284C3.61959 9.24015 4.56686 9.69406 5.5786 9.75991ZM2.67906 5.84087H2.77906C2.77906 5.2353 2.95863 4.64333 3.29507 4.13982C3.6315 3.63631 4.10969 3.24387 4.66916 3.01213C5.22864 2.78038 5.84426 2.71975 6.4382 2.83789C7.03213 2.95603 7.57769 3.24764 8.00589 3.67584C8.43409 4.10404 8.7257 4.6496 8.84384 5.24354C8.96198 5.83747 8.90135 6.4531 8.66961 7.01257C8.43787 7.57204 8.04543 8.05023 7.54192 8.38667C7.03843 8.72308 6.4465 8.90265 5.84097 8.90267C5.02916 8.90182 4.25085 8.57895 3.67681 8.00492C3.10278 7.43088 2.77991 6.65257 2.77906 5.84076L2.67906 5.84087Z" fill="#242424" stroke="#242424" stroke-width="0.2"/>
</svg>
